<svg width="189" height="189" fill="none" xmlns="http://www.w3.org/2000/svg"><path fill-rule="evenodd" clip-rule="evenodd" d="M73.831 25.476L12.023 61.82l1.966 3.343c.572.972.747 1.815.527 2.53-.214.724-.86 1.403-1.935 2.035l-.59.347c-1.272.748-2.3.74-3.083-.024.183.644.078 1.234-.316 1.772-.393.538-1.025 1.062-1.894 1.573-1.417.833-2.617 1.254-3.601 1.262-.974.001-1.786-.551-2.437-1.658l3.153 5.361 13.328-7.837 2.409 4.096c.383.652.528 1.242.435 1.77-.077.532-.348 1.019-.813 1.46-.454.433-1.095.894-1.923 1.38-.755.445-1.402.693-1.942.746-.54.053-1.035-.115-1.487-.504.155.452.124.86-.094 1.224-.21.375-.59.724-1.139 1.046l-5.06 2.934 1.336 2.274L22.95 80.4l2.655 4.515-12.58 9.11 1.39 2.364 13.328-7.837 1.615 2.746-5.656 4.976 6.377-3.75 1.514 2.576-13.328 7.837 1.606 2.731L33.2 97.831l2.162 3.678c.56.951.715 1.82.468 2.606-.248.786-.886 1.489-1.915 2.107l-6.22 3.699c-1.307.783-2.428 1.136-3.364 1.06-.935-.076-1.718-.651-2.35-1.724l7.502 12.76c-.215-.687-.233-1.31-.055-1.87.284-.89 1.093-1.728 2.428-2.513l1.303-.766 1.542 2.622-1.66.977c-.662.389-.869.796-.62 1.22.14.238.305.364.494.378.2.008.465-.086.796-.28.435-.256.761-.517.98-.785a2.51 2.51 0 00.476-.823c.105-.271.238-.732.398-1.383l.473-1.823c.346-1.401 1.047-2.411 2.102-3.032 1.138-.669 2.153-.918 3.047-.747.91.174 1.66.763 2.25 1.767.706 1.2.893 2.252.562 3.157-.32.898-1.159 1.746-2.514 2.543l-1.596-2.716.906-.553a.661.661 0 00.328-.402c.048-.154.021-.319-.082-.494-.122-.207-.27-.329-.445-.366-.174-.036-.36.003-.556.119-.435.255-.739.768-.913 1.538l-.577 2.428a9.81 9.81 0 01-.48 1.493c-.17.42-.43.831-.779 1.231-.339.394-.803.765-1.393 1.111-1.313.773-2.454 1.117-3.423 1.032-.618-.052-1.173-.321-1.664-.806l3.315 5.639 10.769-6.332-.931-1.583 2.56-1.505 3.43 5.834-2.56 1.505-.93-1.582-10.769 6.331 3.235 5.501 4.39-2.582 7.688-7.381 1.551 2.638-4.077 3.399 4.953-1.91 1.551 2.638-10.187 3.129-4.391 2.582 2.557 4.349 13.328-7.837 1.57 2.669-11.064 6.505 1.615 2.747-2.265 1.332 1.354 2.303 13.33-7.837 3.138 5.338-2.576 1.514-1.542-2.622-2.591 1.524 1.478 2.513-2.514 1.478-1.478-2.513-3.057 1.797 1.643 2.793-2.592 1.524 16.38 27.857a5 5 0 006.845 1.776l112.063-65.892a5 5 0 001.776-6.845l-50.694-86.216-6.27.497-.396-4.112c-.062-.79-.345-1.4-.847-1.828-.455-.432-1.079-.617-1.869-.555-.931.074-1.608.385-2.033.934-.425.548-.602 1.265-.532 2.148.155 1.954 1.431 3.89 3.83 5.806l7.509 6.147c1.753 1.452 3.222 2.857 4.407 4.215 1.18 1.31 2.173 2.917 2.979 4.82.803 1.855 1.309 4.11 1.519 6.76.468 5.909-.27 10.485-2.213 13.728-1.901 3.194-5.34 4.987-10.317 5.382-5.443.43-9.481-.607-12.114-3.114-2.633-2.506-4.187-6.76-4.662-12.761l-.464-5.862 11.793-.934.591 7.467c.236 2.977 1.307 4.39 3.215 4.24 1.07-.086 1.79-.447 2.161-1.085.367-.684.492-1.77.374-3.26-.155-1.953-.515-3.54-1.079-4.76-.569-1.265-1.258-2.287-2.069-3.066-.768-.828-2.154-2.076-4.159-3.743l-5.572-4.755c-4.311-3.59-6.654-7.759-7.03-12.504-.405-5.117.451-9.094 2.567-11.93 2.158-2.886 5.494-4.508 10.007-4.865.221-.018.44-.032.657-.045l-5.181-8.812a5 5 0 00-6.845-1.776L91.171 15.281c3.485-.016 6.14.83 7.964 2.535 2.17 1.982 3.447 5.392 3.83 10.23l.21 2.651c.453 5.723-1.323 9.304-5.328 10.745 2.563.452 4.451 1.824 5.662 4.115 1.212 2.292 1.972 5.392 2.282 9.3.504 6.373-.066 11.286-1.712 14.74-1.649 3.408-4.963 5.309-9.94 5.703l-16.26 1.288-4.048-51.112zm17.257 11.305c-.313.774-.982 1.201-2.005 1.282l-2.443.194-1.055-13.329 2.512-.199c1.721-.136 2.66.773 2.814 2.727l.475 6c.11 1.396.011 2.504-.298 3.325zm3.188 23.411c.236 2.977-1.205 4.59-4.322 4.836l-1.191.025-1.377-17.376 2.233-.177c1.35-.107 2.317.285 2.902 1.175.632.886 1.02 2.236 1.164 4.05l.591 7.467zm-71.658 34.88l-5.887 5.258-.785-1.334 6.672-3.924zm-9.034-5.03l-2.048 1.454-1.15-1.955 2.249-1.113.949 1.613zm-2.377-11.04l-5.214 3.066L5.4 81.06l6.083-3.577c.225.383.328.677.31.883-.018.206-.214.418-.586.637zM8.704 67.644c.133.228.307.334.522.32.224-.021.491-.123.802-.305l1.334-.785c.435-.255.54-.574.314-.957l-.328-.559L8.384 67.1l.32.543zm-6.139 3.233c.408.693.943.845 1.605.456l1.66-.976c.404-.237.672-.479.806-.725.14-.235.122-.503-.055-.803l-.291-.496-3.864 2.272.14.272zm11.613 5.9c.219.372.732.321 1.539-.153.351-.207.606-.378.764-.512.157-.135.243-.261.256-.38.024-.126-.01-.266-.101-.421l-.365-.621-2.467 1.45.374.637zm.701 10.603l.712 1.21 6.434-4.576-.073-.124-7.073 3.49zm9.201 20.052c.286.487.667.59 1.143.31l6.874-4.042c.3-.176.507-.333.621-.47.131-.132.186-.276.165-.43-.022-.155-.108-.361-.26-.62l-.174-.295-8.642 5.082.273.465zm46.27-19.199a3.5 3.5 0 013.188-3.786l76.206-6.526a3.5 3.5 0 01.598 6.974l-76.207 6.527a3.5 3.5 0 01-3.785-3.189zm17.21 10.08a2.5 2.5 0 012.277-2.704l44.836-3.84a2.5 2.5 0 01.426 4.982l-44.835 3.84a2.5 2.5 0 01-2.705-2.278zm7.463 7.827a2 2 0 00.319 3.987l35.885-2.868a2 2 0 00-.318-3.987l-35.886 2.868zm8.125 10.098a1 1 0 01.911-1.082l17.935-1.536a1 1 0 01.17 1.993l-17.934 1.536a1.001 1.001 0 01-1.082-.911z" fill="#303030"/></svg>