<svg width="189" height="189" fill="none" xmlns="http://www.w3.org/2000/svg"><path fill-rule="evenodd" clip-rule="evenodd" d="M114.374 163.801l62.239-35.598-1.926-3.367c-.56-.979-.725-1.824-.496-2.536.223-.722.876-1.392 1.959-2.012l.594-.34c1.281-.732 2.309-.712 3.083.062-.176-.646-.064-1.236.337-1.769.4-.533 1.037-1.049 1.912-1.55 1.427-.816 2.633-1.222 3.617-1.218.973.01 1.779.572 2.416 1.687l-3.088-5.399-13.421 7.677-2.36-4.125c-.375-.656-.513-1.248-.414-1.775.084-.531.36-1.014.83-1.449.46-.429 1.107-.882 1.94-1.358.76-.435 1.411-.676 1.951-.722.54-.047 1.034.127 1.48.522-.149-.454-.112-.862.109-1.224.216-.372.6-.716 1.152-1.032l5.096-2.873-1.31-2.29-14.163 6.38-2.601-4.547 12.689-8.958-1.362-2.38-13.421 7.676-1.582-2.765 5.716-4.908-6.422 3.673-1.484-2.593 13.422-7.677-1.573-2.75-13.422 7.676-2.118-3.703c-.548-.959-.694-1.83-.436-2.612.257-.783.903-1.478 1.939-2.084l6.263-3.624c1.317-.767 2.443-1.107 3.378-1.02.933.088 1.71.672 2.329 1.752L159.877 67.8c.207.689.218 1.312.033 1.87-.295.887-1.114 1.715-2.458 2.483l-1.312.75-1.51-2.64 1.671-.956c.667-.381.878-.785.634-1.213-.137-.24-.3-.367-.489-.383-.2-.01-.466.08-.799.27-.438.25-.767.508-.989.773a2.488 2.488 0 00-.486.817c-.109.27-.247.73-.415 1.378l-.495 1.818c-.363 1.396-1.075 2.398-2.138 3.006-1.145.655-2.164.892-3.056.71-.908-.185-1.651-.783-2.229-1.793-.691-1.209-.865-2.263-.523-3.164.331-.894 1.179-1.732 2.544-2.513l1.564 2.735-.913.543a.66.66 0 00-.333.397c-.05.154-.025.319.076.496.12.208.266.332.44.37.175.039.361.002.558-.112.438-.25.748-.759.931-1.527l.606-2.42a9.944 9.944 0 01.497-1.488c.176-.418.441-.825.795-1.221.343-.39.812-.755 1.406-1.095 1.323-.756 2.468-1.086 3.435-.99.618.06 1.169.335 1.655.825l-3.248-5.677-10.843 6.202.911 1.594-2.578 1.474-3.36-5.875 2.578-1.474.912 1.593 10.843-6.202-3.168-5.538-4.422 2.529-7.775 7.288-1.519-2.656 4.117-3.35-4.975 1.85-1.52-2.657 10.225-3.007 4.421-2.529-2.505-4.379-13.421 7.677-1.537-2.688 11.14-6.372-1.582-2.765 2.282-1.305-1.327-2.32-13.422 7.677-3.074-5.375 2.594-1.483 1.51 2.64 2.609-1.492-1.448-2.532 2.532-1.447 1.447 2.53 3.078-1.76-1.608-2.812 2.609-1.493L123.008 3.34a5 5 0 00-6.822-1.858L3.34 66.026a5 5 0 00-1.858 6.823l49.657 86.818 6.275-.422.347 4.116c.053.792.328 1.405.825 1.839.45.438 1.071.63 1.863.577.93-.063 1.612-.366 2.043-.909.432-.544.617-1.258.558-2.142-.131-1.956-1.385-3.906-3.76-5.852l-7.435-6.236c-1.736-1.473-3.188-2.896-4.355-4.267-1.165-1.325-2.14-2.944-2.922-4.856-.78-1.865-1.26-4.125-1.438-6.779-.397-5.913.396-10.48 2.378-13.7 1.938-3.17 5.399-4.922 10.381-5.257 5.448-.366 9.473.721 12.075 3.259 2.603 2.538 4.106 6.81 4.51 12.816l.393 5.867-11.803.793-.502-7.474c-.2-2.98-1.255-4.405-3.164-4.277-1.07.072-1.795.424-2.174 1.058-.375.68-.513 1.765-.413 3.255.132 1.955.472 3.546 1.022 4.772.553 1.272 1.23 2.303 2.032 3.091.758.838 2.129 2.102 4.113 3.793l5.516 4.821c4.267 3.642 6.56 7.838 6.878 12.588.344 5.121-.559 9.087-2.709 11.898-2.193 2.86-5.548 4.441-10.064 4.745a30.82 30.82 0 01-.659.037l5.076 8.873a5 5 0 006.823 1.858l24.064-13.764c-3.485-.026-6.13-.903-7.934-2.631-2.146-2.007-3.381-5.432-3.706-10.274l-.179-2.654c-.384-5.727 1.435-9.287 5.457-10.68-2.558-.483-4.429-1.877-5.613-4.183-1.183-2.306-1.907-5.415-2.17-9.326-.427-6.379.202-11.285 1.889-14.719 1.69-3.388 5.026-5.249 10.008-5.583l16.274-1.093 3.435 51.156zm-17.12-11.51c.322-.77.996-1.19 2.02-1.258l2.445-.165.895 13.34-2.514.169c-1.723.116-2.65-.804-2.781-2.76l-.403-6.006c-.094-1.397.019-2.504.338-3.32zm-2.907-23.448c-.2-2.98 1.26-4.575 4.379-4.784l1.192-.01 1.168 17.391-2.235.15c-1.35.09-2.313-.313-2.888-1.21-.621-.893-.993-2.248-1.115-4.064l-.501-7.473zm72.07-34.019l5.95-5.186.769 1.343-6.719 3.843zm8.974 5.14l2.065-1.43 1.126 1.969-2.262 1.085-.929-1.624zm2.244 11.066l5.25-3.003.581 1.015-6.125 3.504c-.22-.386-.32-.681-.299-.887.021-.205.218-.415.593-.629zm2.367 11.389c-.131-.23-.304-.338-.518-.326-.225.018-.493.116-.806.295l-1.343.768c-.438.251-.546.569-.326.954l.322.562 2.984-1.707-.313-.546zm6.177-3.16c-.4-.698-.932-.856-1.599-.475l-1.672.957c-.406.232-.678.47-.815.714-.142.234-.127.502.045.804l.286.5 3.891-2.225-.136-.275zm-11.541-6.038c-.215-.375-.728-.33-1.541.135-.354.202-.61.37-.77.502-.159.133-.246.259-.261.378-.025.125.007.265.096.422l.358.625 2.484-1.421-.366-.641zm-.574-10.611l-.697-1.219-6.489 4.499.072.125 7.114-3.405zm-8.96-20.161c-.28-.49-.66-.598-1.139-.324l-6.922 3.96c-.302.172-.511.326-.627.462-.132.13-.189.274-.17.429.02.154.104.362.253.622l.17.297 8.703-4.977-.268-.47zm-46.496 18.643a3.5 3.5 0 01-3.234 3.747l-76.28 5.613a3.5 3.5 0 01-.513-6.982l76.279-5.612a3.5 3.5 0 013.748 3.234zM101.52 90.806a2.5 2.5 0 01-2.31 2.677l-44.878 3.302a2.5 2.5 0 11-.367-4.987l44.878-3.302a2.5 2.5 0 012.677 2.31zm-7.37-7.915a2 2 0 10-.27-3.991l-35.918 2.437a2 2 0 10.271 3.99l35.918-2.436zm-8.003-10.195a1 1 0 01-.924 1.07l-17.951 1.321a1 1 0 11-.147-1.995l17.951-1.32a1 1 0 011.071.924z" fill="#303030"/></svg>