<svg width="140" height="140" fill="none" xmlns="http://www.w3.org/2000/svg"><path fill-rule="evenodd" clip-rule="evenodd" d="M87.163 0H15.462v3.878c0 1.128-.276 1.944-.828 2.448-.552.516-1.452.774-2.7.774h-.684c-1.476 0-2.358-.528-2.646-1.584-.168.648-.558 1.104-1.17 1.368-.612.264-1.422.396-2.43.396-1.644 0-2.892-.246-3.744-.738C.42 6.05 0 5.162 0 3.878v6.22h15.462v4.751c0 .756-.174 1.338-.522 1.746-.336.42-.816.702-1.44.846-.612.144-1.398.216-2.358.216-.876 0-1.56-.114-2.052-.342-.492-.228-.834-.624-1.026-1.188-.096.468-.33.804-.702 1.008-.372.216-.876.324-1.512.324L0 17.423v2.638l15.462 1.494v5.238L0 28.27v2.743h15.462v3.186L8.064 35.62h7.398v2.988H0v3.169h15.462v4.266c0 1.104-.306 1.932-.918 2.484-.612.552-1.518.834-2.718.846l-7.236.036c-1.524.012-2.67-.252-3.438-.792C.385 48.077.001 47.185 0 45.94v14.8c.162-.7.462-1.246.9-1.639.696-.624 1.818-.936 3.366-.936h1.512v3.042H3.852c-.768 0-1.152.246-1.152.738 0 .276.078.468.234.576.168.108.444.162.828.162.504 0 .918-.06 1.242-.18.336-.12.612-.276.828-.468.228-.18.576-.51 1.044-.99l1.332-1.332c1.008-1.032 2.124-1.548 3.348-1.548 1.32 0 2.322.3 3.006.9.696.612 1.044 1.5 1.044 2.664 0 1.392-.372 2.394-1.116 3.006-.732.612-1.884.918-3.456.918v-3.15l1.062-.018c.204 0 .366-.06.486-.18.12-.108.18-.264.18-.468 0-.24-.066-.42-.198-.54-.132-.12-.312-.18-.54-.18-.504 0-1.026.288-1.566.864l-1.728 1.8a9.8 9.8 0 01-1.17 1.044c-.36.276-.792.498-1.296.666-.492.168-1.08.252-1.764.252-1.524 0-2.682-.282-3.474-.846C.52 64.54.178 64.028 0 63.361v6.54h12.492v-1.836h2.97v6.768h-2.97v-1.836H0v6.38h5.094l10.368-2.465v3.06l-5.238.864 5.238.864v3.06L5.094 82.294H0v5.045h15.462v3.096H2.628v3.186H0v2.672h15.462v6.192h-2.988v-3.042H9.468v2.916H6.552v-2.916H3.006v3.24H0V135a5 5 0 005 5h130a5 5 0 005-5V34.984l-5.656-2.75 1.742-3.744c.347-.714.413-1.382.197-2.006-.173-.604-.617-1.079-1.331-1.426-.839-.408-1.581-.483-2.225-.225-.644.257-1.16.785-1.548 1.582-.856 1.763-.737 4.079.36 6.947l3.357 9.104c.775 2.14 1.329 4.096 1.662 5.867.353 1.728.395 3.617.126 5.665-.249 2.007-.955 4.206-2.118 6.598-2.592 5.33-5.547 8.9-8.866 10.712-3.257 1.79-7.131 1.592-11.621-.59-4.911-2.388-7.866-5.33-8.865-8.824-.999-3.496-.182-7.95 2.45-13.364l2.571-5.289 10.639 5.173-3.275 6.736c-1.306 2.686-1.098 4.447.623 5.284.965.47 1.769.523 2.412.16.664-.403 1.322-1.277 1.975-2.62.857-1.762 1.351-3.312 1.482-4.65.151-1.379.075-2.61-.229-3.691-.242-1.104-.804-2.882-1.688-5.335l-2.393-6.924c-1.896-5.28-1.803-10.06.278-14.341 2.245-4.617 4.998-7.611 8.259-8.983 3.324-1.394 7.021-1.101 11.092.878.2.097.397.195.59.295V5a5 5 0 00-5-5h-27.723c3.013 1.753 4.873 3.827 5.581 6.223.866 2.808.238 6.394-1.884 10.759l-1.163 2.392c-2.509 5.162-5.856 7.35-10.039 6.561 1.981 1.69 2.913 3.829 2.796 6.418-.118 2.59-1.033 5.647-2.747 9.172-2.796 5.75-5.778 9.697-8.947 11.84-3.15 2.102-6.97 2.06-11.46-.123l-14.668-7.13L87.163 0zm9.145 18.491c-.662.509-1.455.538-2.378.09l-2.204-1.072 5.846-12.024 2.267 1.102c1.552.755 1.9 2.014 1.043 3.776l-2.632 5.414c-.612 1.26-1.26 2.164-1.942 2.714zM87.19 40.29c-1.305 2.686-3.364 3.345-6.176 1.978l-1.04-.583 7.62-15.676 2.015.98c1.217.591 1.853 1.419 1.906 2.483.096 1.084-.254 2.445-1.05 4.082L87.19 40.29zM7.74 34.036L0 35.584v-1.548h7.74zm-5.238-8.917L0 25.335v-2.268l2.502.18v1.872zM6.048 14.4H0v-1.17h7.056c0 .444-.06.75-.18.918-.12.168-.396.252-.828.252zm3.6-11.061c0 .264.096.444.288.54.204.096.486.144.846.144h1.548c.504 0 .756-.222.756-.666v-.648H9.648v.63zm-6.93-.324c0 .804.384 1.206 1.152 1.206h1.926c.468 0 .822-.072 1.062-.216.24-.132.36-.372.36-.72v-.576H2.736l-.018.306zm7.02 10.971c0 .432.468.648 1.404.648.408 0 .714-.018.918-.054.204-.036.342-.102.414-.198.084-.096.126-.234.126-.414v-.72H9.738v.738zm-4.77 9.496v1.404l7.866-.684v-.144l-7.866-.576zm-2.232 21.95c0 .564.276.846.828.846h7.974c.348 0 .606-.03.774-.09.18-.048.3-.144.36-.288s.09-.366.09-.666v-.342H2.736v.54zm49.617 6.901a3.5 3.5 0 014.667-1.647l69 33A3.5 3.5 0 11123 90L54 57a3.5 3.5 0 01-1.647-4.668zm9.726 17.413a2.5 2.5 0 013.334-1.177l40.596 19.416a2.5 2.5 0 01-2.158 4.51L63.255 73.08a2.5 2.5 0 01-1.176-3.334zm2.467 10.53a2 2 0 00-1.747 3.598L95.187 99.59a2 2 0 001.747-3.599L64.546 80.276zm1.885 12.823a1 1 0 011.334-.47l16.239 7.765a1 1 0 01-.863 1.805l-16.239-7.766a1 1 0 01-.47-1.334zm-39.637 21.876h-3.262V127h3.262c.999 0 1.69-.327 2.072-.98.383-.663.574-1.633.574-2.912 0-.784-.103-1.414-.308-1.89a1.517 1.517 0 00-1.064-.91c.821-.224 1.232-.91 1.232-2.058v-.532c0-.971-.2-1.671-.602-2.1-.392-.429-1.027-.644-1.904-.644zm0 4.298c-.075.149-.215.224-.42.224h-.49v-2.674h.504c.345 0 .518.196.518.588v1.204c0 .28-.037.499-.112.658zm.266 4.718c0 .597-.313.896-.938.896l-.238-.014v-3.486h.448c.27 0 .457.093.56.28.112.187.168.462.168.826v1.498zm8.267-9.016h-3.696V127h2.436v-5.488c.346 0 .584.047.714.14.13.093.196.308.196.644V127h2.352l.028-4.55c0-.495-.084-.887-.252-1.176-.158-.289-.42-.471-.784-.546.439-.149.747-.415.924-.798.178-.383.266-.915.266-1.596 0-.747-.056-1.358-.168-1.834-.112-.485-.331-.859-.658-1.12-.317-.271-.77-.406-1.358-.406zm-.168 3.36c0 .728-.168 1.092-.504 1.092h-.574V117.2h.56c.14 0 .248.033.322.098.075.056.126.163.154.322.028.159.042.397.042.714zm5.384-3.36L39.381 127h2.338l.14-1.946h1.456l.168 1.946h2.282l-1.148-12.026h-4.074zm2.59 8.162h-1.092l.448-6.118h.112l.532 6.118zm4.765-8.162V127h2.352v-6.02l1.204 6.02h2.352v-12.026h-2.324v5.754l-1.106-5.754h-2.478zm11.69 0h-3.317V127h3.234c.97 0 1.666-.299 2.086-.896.42-.597.625-1.489.616-2.674l-.028-5.628c-.01-.933-.229-1.638-.658-2.114-.43-.476-1.074-.714-1.932-.714zm.183 9.254c0 .429-.22.644-.658.644h-.42v-7.798h.266c.233 0 .406.023.518.07.112.047.186.14.224.28.046.131.07.331.07.602v6.202zm10.325-9.254L68.934 127h2.338l.14-1.946h1.456l.168 1.946h2.282l-1.148-12.026h-4.074zm2.59 8.162h-1.092l.448-6.118h.112l.532 6.118zm5.297 3.066c.43.607 1.078.91 1.946.91.896 0 1.559-.373 1.988-1.12l.406 1.008h.966v-7h-2.94v2.072h.644v1.722c0 .364-.046.639-.14.826-.093.187-.256.28-.49.28-.233 0-.397-.093-.49-.28-.093-.187-.14-.462-.14-.826v-5.824c0-.597.229-.896.686-.896.206 0 .346.079.42.238.084.159.126.383.126.672v1.078h2.352c0-.952-.084-1.731-.252-2.338-.168-.607-.471-1.069-.91-1.386-.439-.317-1.055-.476-1.848-.476-.98 0-1.717.285-2.212.854-.495.569-.742 1.409-.742 2.52v5.18c0 1.241.21 2.17.63 2.786zm7.663-11.228V127h4.97v-2.338h-2.52v-2.758h2.268v-2.268h-2.268v-2.338h2.366v-2.324h-4.816zm7.17 0V127h2.352v-6.02l1.204 6.02h2.352v-12.026H96.4v5.754l-1.106-5.754h-2.478zm9.058 11.312c.532.551 1.237.826 2.114.826 2.026 0 3.038-1.008 3.038-3.024v-2.268h-2.422v2.17c0 .607-.186.91-.56.91a.473.473 0 01-.42-.21c-.093-.149-.14-.383-.14-.7v-6.034c0-.289.038-.509.112-.658.084-.149.234-.224.448-.224.206 0 .35.065.434.196.084.131.126.369.126.714v1.778h2.394v-2.072c0-.915-.27-1.615-.812-2.1-.541-.485-1.255-.728-2.142-.728-1.017 0-1.764.303-2.24.91-.476.607-.714 1.507-.714 2.702v5.544c0 .961.262 1.717.784 2.268zm8.801-3.248V127h2.268v-3.962l1.918-8.064h-2.38l-.672 4.074-.672-4.074h-2.38l1.918 8.064z" fill="#303030"/></svg>