<svg width="50" height="50" fill="none" xmlns="http://www.w3.org/2000/svg"><path d="M25 0c-6.796 0-7.642.033-10.302.145-2.67.132-4.476.546-6.07 1.164A12.26 12.26 0 004.2 4.2a12.12 12.12 0 00-2.889 4.426c-.618 1.594-1.033 3.4-1.164 6.07-.12 2.661-.145 3.507-.145 10.302s.033 7.642.145 10.301c.131 2.663.546 4.477 1.164 6.07a12.26 12.26 0 002.89 4.427 12.12 12.12 0 004.426 2.89c1.594.61 3.408 1.032 6.07 1.163 2.661.12 3.506.146 10.302.146 6.795 0 7.642-.033 10.301-.146 2.663-.13 4.477-.554 6.07-1.164a12.26 12.26 0 004.427-2.889 12.055 12.055 0 002.89-4.426c.61-1.594 1.032-3.408 1.163-6.07.12-2.661.146-3.507.146-10.302s-.033-7.642-.146-10.302c-.13-2.662-.554-4.486-1.164-6.07a12.26 12.26 0 00-2.889-4.427 12.056 12.056 0 00-4.426-2.889C39.778.691 37.964.277 35.302.145 32.64.025 31.794 0 25 0zm0 4.5c6.673 0 7.47.033 10.108.145 2.432.114 3.757.52 4.637.864a7.795 7.795 0 012.881 1.87 7.706 7.706 0 011.863 2.874c.344.88.75 2.205.864 4.638.112 2.637.145 3.436.145 10.107 0 6.672-.033 7.47-.154 10.108-.132 2.433-.538 3.758-.88 4.638-.474 1.173-1.002 1.993-1.874 2.881a7.888 7.888 0 01-2.88 1.862c-.87.344-2.213.75-4.656.865-2.651.112-3.432.145-10.123.145-6.69 0-7.47-.033-10.125-.155-2.433-.131-3.775-.537-4.655-.88-1.187-.473-2.001-1.001-2.873-1.873-.88-.88-1.44-1.717-1.87-2.881-.35-.869-.75-2.213-.88-4.655-.09-2.62-.131-3.433-.131-10.092 0-6.656.042-7.47.13-10.123.13-2.443.53-3.783.88-4.655.432-1.19.993-2.002 1.87-2.881.871-.87 1.687-1.433 2.874-1.874.88-.342 2.19-.748 4.632-.87 2.651-.095 3.432-.13 10.114-.13L25 4.5zm0 7.667A12.828 12.828 0 0012.167 25 12.828 12.828 0 0025 37.833 12.828 12.828 0 0037.833 25 12.828 12.828 0 0025 12.167zm0 21.166A8.328 8.328 0 0116.667 25 8.328 8.328 0 0125 16.667 8.327 8.327 0 0133.333 25 8.327 8.327 0 0125 33.333zm16.35-21.678a3.005 3.005 0 01-5.125 2.123 2.998 2.998 0 012.12-5.119 3.007 3.007 0 013.005 2.996z" fill="#000"/></svg>