<svg width="60" height="60" fill="none" xmlns="http://www.w3.org/2000/svg"><rect width="60" height="60" rx="5" fill="#F4B704"/><path d="M26.974 9.095l6.287 3.057c1.69.822 2.712 1.83 3.066 3.025.37 1.203.102 2.74-.808 4.61l-.498 1.026c-1.076 2.212-2.51 3.15-4.303 2.812.85.724 1.249 1.64 1.198 2.75-.05 1.11-.442 2.42-1.177 3.931-1.198 2.465-2.476 4.156-3.834 5.075-1.35.9-2.987.883-4.912-.053l-6.286-3.056L26.974 9.095zm1.24 11.378c.396.192.736.18 1.02-.038.292-.236.57-.624.832-1.163l1.128-2.32c.367-.756.218-1.296-.447-1.62l-.971-.472-2.506 5.154.945.459zM22.68 30.624c1.205.586 2.088.303 2.647-.848l1.404-2.887c.34-.701.49-1.284.45-1.749-.023-.456-.296-.81-.817-1.064l-.863-.42-3.267 6.718.446.25zM35.231 42.03c-2.105-1.023-3.371-2.283-3.8-3.781-.427-1.498-.077-3.407 1.05-5.728l1.102-2.266 4.56 2.216-1.403 2.887c-.56 1.152-.471 1.907.267 2.265.413.201.758.224 1.033.069.285-.173.567-.547.846-1.123.368-.756.58-1.42.636-1.993.065-.591.032-1.118-.098-1.582-.104-.473-.345-1.235-.724-2.286l-1.025-2.968c-.813-2.262-.773-4.311.119-6.146.962-1.979 2.142-3.262 3.54-3.85 1.424-.597 3.009-.472 4.753.377 2.087 1.014 3.318 2.302 3.693 3.863.384 1.543.003 3.493-1.142 5.849l-4.722-2.295.747-1.605c.148-.306.177-.593.084-.86-.074-.259-.264-.462-.57-.61-.36-.176-.678-.208-.954-.098-.276.11-.497.337-.663.679-.367.755-.316 1.747.154 2.977l1.439 3.901c.332.918.57 1.756.712 2.515.151.74.17 1.55.054 2.428-.107.86-.41 1.802-.908 2.828-1.11 2.284-2.377 3.814-3.8 4.59-1.395.767-3.056.683-4.98-.253zm-9.335 5.732c-1.793 1.126-4.132-.111-4.21-2.227-.08-2.115 2.162-3.522 4.033-2.532 1.871.99 1.97 3.634.177 4.76z" fill="#535353"/></svg>