<svg width="80" height="80" fill="none" xmlns="http://www.w3.org/2000/svg"><path fill-rule="evenodd" clip-rule="evenodd" d="M0 1.71v3.455h8.59v2.64c0 .42-.097.743-.29.97-.187.233-.453.39-.8.47-.34.08-.777.12-1.31.12-.487 0-.867-.063-1.14-.19-.273-.127-.463-.347-.57-.66-.053.26-.183.447-.39.56-.207.12-.487.18-.84.18L0 9.235v1.466l8.59.83v2.91L0 15.26v1.523h8.59v1.77l-4.11.79h4.11v1.66H0v1.76h8.59v2.37c0 .614-.17 1.074-.51 1.38-.34.307-.843.464-1.51.47l-4.02.02c-.847.007-1.483-.14-1.91-.44-.427-.3-.64-.796-.64-1.49v6.736l8.59.83v2.91L0 36.37v2.699a1.46 1.46 0 01.57-.795c.44-.3 1.103-.45 1.99-.45h3.7c.793 0 1.393.176 1.8.53.407.353.61.88.61 1.58 0 .566-.113 1.006-.34 1.32-.227.313-.557.53-.99.65-.433.12-.99.18-1.67.18v-1.68h.77c.207 0 .367-.03.48-.09.113-.054.17-.154.17-.3 0-.327-.213-.49-.64-.49H2.29c-.26 0-.457.033-.59.1-.133.066-.2.183-.2.35 0 .166.067.283.2.35.133.066.33.1.59.1h1.23v-.46H5v2.1H0v1.683h8.59v3.44H6.93v-1.69H5.26v1.62H3.64v-1.62H1.67v1.8H0v1.571h8.59v1.77l-4.11.79h4.11v1.66H0v3.119c.092-.339.262-.628.51-.868.393-.374.933-.56 1.62-.56h3.96c.853 0 1.497.17 1.93.51.433.34.65.873.65 1.6 0 .633-.173 1.143-.52 1.53-.347.386-.847.58-1.5.58H5.17v-1.71h1.27c.247 0 .417-.03.51-.09.093-.06.14-.164.14-.31 0-.154-.053-.26-.16-.32-.107-.054-.263-.08-.47-.08H2.15c-.227 0-.393.033-.5.1a.337.337 0 00-.15.3c0 .266.217.4.65.4H3.7v1.73H2.08c-1.163 0-1.856-.472-2.08-1.415v4.021h2.83l5.76-1.37v1.7l-2.91.48 2.91.48v1.7l-5.76-1.37H0V80h80V18.81l-1.45-.705.996-2.14c.199-.407.236-.79.113-1.146-.1-.345-.353-.616-.76-.814-.48-.234-.904-.277-1.272-.13-.368.148-.663.45-.885.905-.49 1.007-.42 2.33.206 3.97l1.918 5.202c.443 1.223.76 2.34.95 3.352.202.988.226 2.067.072 3.238-.143 1.146-.546 2.403-1.21 3.77-1.481 3.046-3.17 5.086-5.067 6.12-1.86 1.023-4.074.911-6.64-.337-2.807-1.364-4.495-3.044-5.066-5.042-.57-1.997-.104-4.542 1.4-7.636l1.469-3.022 6.08 2.956-1.872 3.849c-.746 1.535-.627 2.541.356 3.02.552.267 1.011.298 1.379.091.379-.23.755-.73 1.128-1.497.49-1.008.772-1.893.847-2.657.086-.788.043-1.492-.131-2.11-.138-.63-.46-1.647-.964-3.048l-1.368-3.957c-1.083-3.017-1.03-5.749.159-8.195 1.282-2.638 2.855-4.349 4.72-5.133 1.498-.628 3.128-.657 4.892-.086V0H63.593c1.424.933 2.317 2.013 2.68 3.241.495 1.605.136 3.654-1.076 6.148l-.665 1.367c-1.434 2.95-3.346 4.2-5.736 3.75 1.131.965 1.664 2.188 1.597 3.667-.067 1.48-.59 3.227-1.57 5.241-1.597 3.286-3.301 5.541-5.112 6.766-1.8 1.2-3.983 1.177-6.549-.07l-8.382-4.075L51.437 0H8.59v1.71c0 .627-.153 1.08-.46 1.36-.307.287-.807.43-1.5.43h-.38c-.82 0-1.31-.293-1.47-.88-.093.36-.31.613-.65.76-.34.147-.79.22-1.35.22-.913 0-1.607-.137-2.08-.41-.467-.273-.7-.767-.7-1.48zm0 49.698l4.3-.86H0v.86zm0-10.034l.72-.29c-.365-.21-.605-.498-.72-.863v1.153zm0-6.634l1.39-.12v-1.04L0 33.48v1.26zm0-15.416l4.3-.86H0v.86zm0-5.693l1.39-.12v-1.04L0 12.37v1.26zm0-6.076h3.36c.24 0 .393-.047.46-.14.067-.093.1-.263.1-.51H0v.65zM5.52 1.71c-.107-.053-.16-.153-.16-.3v-.35h1.91v.36c0 .247-.14.37-.42.37h-.86c-.2 0-.357-.027-.47-.08zm-3.37.19c-.427 0-.64-.223-.64-.67l.01-.17h2.49v.32c0 .193-.067.327-.2.4-.133.08-.33.12-.59.12H2.15zm4.04 5.785c-.52 0-.78-.12-.78-.36v-.41H7v.4c0 .1-.023.177-.07.23-.04.053-.117.09-.23.11a3.18 3.18 0 01-.51.03zm-3.43 5.696v-.78l4.37.32V13l-4.37.38zm-.78 11.884c-.307 0-.46-.157-.46-.47v-.3h5.57v.19c0 .166-.017.29-.05.37-.033.08-.1.133-.2.16a1.37 1.37 0 01-.43.05H1.98zm.78 9.225v-.78l4.37.32v.08l-4.37.38zm52.697-24.187c.528.256.98.24 1.359-.051.39-.314.76-.831 1.11-1.55l1.504-3.095c.49-1.007.29-1.726-.597-2.158l-1.295-.63-3.34 6.872 1.259.612zm-7.38 13.535c1.606.781 2.783.404 3.529-1.13l1.871-3.85c.455-.935.655-1.712.6-2.332-.03-.608-.393-1.08-1.089-1.419l-1.151-.56-4.355 8.958.594.333zm-9.394 4.15a1.5 1.5 0 00-1.341 2.683l31.316 15.658A1.5 1.5 0 0070 43.646L38.683 27.987zm-1.236 6.118a1 1 0 011.342-.448l26.833 13.417a1 1 0 11-.895 1.789L37.894 35.447a1 1 0 01-.447-1.341zm3.342 5.552a1 1 0 00-.895 1.79l17.889 8.944a1 1 0 10.894-1.79L40.79 39.659zM18.266 63.987h1.631c.439 0 .756.107.952.322.2.215.301.565.301 1.05v.266c0 .574-.205.917-.616 1.029.252.065.43.217.532.455.103.238.154.553.154.945 0 .64-.096 1.125-.287 1.456-.191.327-.537.49-1.036.49h-1.631v-6.013zm1.421 2.261c.103 0 .173-.037.21-.112a.788.788 0 00.056-.329v-.602c0-.196-.086-.294-.259-.294h-.252v1.337h.245zm-.126 2.695c.313 0 .469-.15.469-.448v-.749c0-.182-.028-.32-.084-.413-.051-.093-.145-.14-.28-.14h-.224v1.743l.119.007zm2.755-4.956h1.848c.294 0 .52.068.679.203.163.13.273.317.329.56.056.238.084.544.084.917 0 .34-.045.607-.133.798a.748.748 0 01-.462.399.545.545 0 01.392.273c.084.145.126.34.126.588L25.165 70h-1.176v-2.352c0-.168-.033-.275-.098-.322-.066-.047-.185-.07-.357-.07V70h-1.218v-6.013zm1.512 2.226c.168 0 .252-.182.252-.546 0-.159-.007-.278-.021-.357-.014-.08-.04-.133-.077-.161-.038-.033-.091-.049-.161-.049h-.28v1.113h.287zM26.19 70l.58-6.013h2.037L29.383 70H28.24l-.084-.973h-.727l-.07.973h-1.17zm1.33-1.932h.546l-.267-3.059h-.056l-.224 3.059zM30.448 70v-6.013h1.239l.553 2.877v-2.877h1.162V70h-1.176l-.602-3.01V70h-1.176zm4.186-6.013h1.66c.429 0 .75.119.965.357.215.238.325.59.33 1.057l.013 2.814c.005.593-.098 1.038-.308 1.337-.21.299-.557.448-1.043.448h-1.617v-6.013zm1.421 4.949c.22 0 .33-.107.33-.322v-3.101a.956.956 0 00-.036-.301c-.018-.07-.056-.117-.112-.14a.716.716 0 00-.259-.035h-.133v3.899h.21zM40.967 70l.581-6.013h2.037L44.16 70h-1.14l-.085-.973h-.728l-.07.973h-1.169zm1.33-1.932h.546l-.266-3.059h-.056l-.224 3.059zm4.168 1.988c-.434 0-.759-.152-.973-.455-.21-.308-.315-.772-.315-1.393v-2.59c0-.555.123-.975.37-1.26.248-.285.617-.427 1.107-.427.396 0 .704.08.924.238.219.159.37.39.455.693.084.303.126.693.126 1.169h-1.176v-.539a.73.73 0 00-.063-.336c-.038-.08-.108-.119-.21-.119-.23 0-.343.15-.343.448v2.912c0 .182.023.32.07.413.046.093.128.14.245.14.116 0 .198-.047.245-.14.046-.093.07-.231.07-.413v-.861h-.322V66.5h1.47V70h-.483l-.203-.504c-.215.373-.546.56-.994.56zM49.323 70v-6.013h2.408v1.162h-1.183v1.169h1.134v1.134h-1.134v1.379h1.26V70h-2.485zm3.585 0v-6.013h1.239l.553 2.877v-2.877h1.162V70h-1.176l-.602-3.01V70h-1.176zm5.586.056c-.438 0-.79-.138-1.057-.413-.261-.275-.392-.653-.392-1.134v-2.772c0-.597.12-1.048.357-1.351.238-.303.611-.455 1.12-.455.444 0 .8.121 1.071.364.27.243.406.593.406 1.05v1.036h-1.197v-.889c0-.173-.02-.292-.063-.357-.042-.065-.114-.098-.217-.098-.107 0-.182.037-.224.112a.76.76 0 00-.056.329v3.017c0 .159.024.275.07.35.047.07.117.105.21.105.187 0 .28-.152.28-.455V67.41h1.211v1.134c0 1.008-.506 1.512-1.519 1.512zM61.838 70v-1.981l-.96-4.032h1.19l.337 2.037.336-2.037h1.19l-.96 4.032V70h-1.133z" fill="#fff"/></svg>