<svg width="60" height="60" fill="none" xmlns="http://www.w3.org/2000/svg"><path d="M30 0C13.433 0 0 13.433 0 30s13.433 30 30 30 30-13.433 30-30S46.567 0 30 0zm1.493 44.545l.014 2.122a.543.543 0 01-.536.543h-1.902a.537.537 0 01-.535-.536v-2.103c-5.947-.441-8.746-3.83-9.047-7.513a.537.537 0 01.535-.583h3.094c.261 0 .489.188.53.442.34 2.123 1.995 3.71 4.961 4.105v-9.555l-1.654-.422c-3.502-.837-6.837-3.02-6.837-7.547 0-4.882 3.71-7.507 8.451-7.969v-2.21c0-.294.241-.536.536-.536h1.881c.295 0 .536.242.536.536v2.19c4.587.462 8.03 3.14 8.43 7.312a.535.535 0 01-.535.59h-3.007a.534.534 0 01-.529-.462c-.267-1.956-1.834-3.55-4.386-3.898v8.994l1.701.395c4.34 1.071 7.293 3.147 7.293 7.794 0 5.043-3.75 7.855-8.994 8.31zM24.281 23.19c0 1.7 1.052 3.02 3.315 3.837.315.127.63.227 1.004.335v-8.304c-2.47.315-4.319 1.7-4.319 4.132zm7.802 9.053a9.52 9.52 0 01-.59-.147v8.953c2.853-.254 4.822-1.821 4.822-4.446 0-2.056-1.065-3.395-4.232-4.36z" fill="#F4B704"/></svg>