<svg width="60" height="61" fill="none" xmlns="http://www.w3.org/2000/svg"><path d="M30.42.003C13.548-.225-.225 13.548.003 30.42.228 46.6 13.403 59.775 29.583 60c16.874.23 30.645-13.543 30.414-30.414C59.775 13.403 46.6.228 30.42.003zm-.531 21.938c.03-.173.063-.346.102-.518a9.586 9.586 0 012.35-4.501c1.859-1.98 4.494-3.074 7.42-3.074a10.678 10.678 0 013.614.615 9.617 9.617 0 013.79 2.48 9.829 9.829 0 012.595 6.078c.04.547.04 1.097 0 1.644a12.432 12.432 0 01-1.412 4.925 11.456 11.456 0 01-1.761 2.46c-1.892 2.02-4.315 3.135-6.823 3.135-.94 0-1.875-.156-2.765-.459a9.17 9.17 0 01-.88-.35 10.203 10.203 0 01-3.183-2.325 12.08 12.08 0 01-3.173-7.402c-.026-.373-.034-.742-.026-1.107.012-.536.062-1.07.152-1.598v-.003zM8.294 25.45a8.63 8.63 0 01.75-2.977c.12-.261.254-.517.401-.764a8.02 8.02 0 013.056-2.94 8.19 8.19 0 011.17-.524 9.209 9.209 0 014.81-.345 8.22 8.22 0 014.439 2.452 8.345 8.345 0 012.222 5.57c.008.304 0 .61-.021.92a10.323 10.323 0 01-1.692 4.941 9.43 9.43 0 01-2.273 2.39c-.216.154-.441.298-.673.443-.457.272-.94.496-1.443.67a7.112 7.112 0 01-2.336.398c-.134 0-.268 0-.401-.011a6.854 6.854 0 01-1.562-.267 7.715 7.715 0 01-1.471-.594c-2.596-1.369-4.553-4.206-4.937-7.517a9.604 9.604 0 01-.039-1.845zm7.777 25.759a25.567 25.567 0 01-8.933-10.19.577.577 0 01.233-.759c2.68-1.507 6.102-2.327 9.336-2.327 2.452 0 4.427.288 6.157.848a1.153 1.153 0 01.373 1.986c-3.367 2.74-5.538 6.135-6.558 10.204a.4.4 0 01-.608.238zM30 55.385a25.256 25.256 0 01-9.475-1.835.577.577 0 01-.346-.643c.057-.296.12-.565.177-.79 1.027-4.1 3.571-7.5 7.356-9.834 3.358-2.07 7.643-3.209 12.045-3.209 4.494 0 8.654 1.094 12.04 3.16a.392.392 0 01.131.53A25.398 25.398 0 0130 55.384z" fill="#F4B704"/></svg>