<svg width="60" height="60" fill="none" xmlns="http://www.w3.org/2000/svg"><path d="M60 29.952c0 7.944-3.16 15.562-8.787 21.18A30.024 30.024 0 0130 59.903 30.024 30.024 0 018.787 51.13 29.928 29.928 0 010 29.952c0-7.944 3.16-15.562 8.787-21.18A30.024 30.024 0 0130 0a30.024 30.024 0 0121.213 8.773A29.928 29.928 0 0160 29.952zM30 13.104a1.87 1.87 0 00-1.875-1.872 1.876 1.876 0 00-1.875 1.872v20.592a1.87 1.87 0 00.945 1.625l13.125 7.488a1.878 1.878 0 002.52-.718 1.87 1.87 0 00-.66-2.532L30 32.61V13.104z" fill="#F4B704"/></svg>