<svg width="80" height="80" fill="none" xmlns="http://www.w3.org/2000/svg"><path d="M78.81 16.457a31.093 31.093 0 01-8.916 2.443 15.567 15.567 0 006.826-8.593 31 31 0 01-9.86 3.766A15.534 15.534 0 0040.4 28.24 44.098 44.098 0 018.394 12.013a15.521 15.521 0 00-2.1 7.807A15.534 15.534 0 0013.2 32.747a15.49 15.49 0 01-7.033-1.944v.2A15.533 15.533 0 0018.624 46.23a15.64 15.64 0 01-7.014.267 15.536 15.536 0 0014.507 10.78 31.16 31.16 0 01-19.287 6.65c-1.239 0-2.476-.072-3.706-.217a43.917 43.917 0 0023.8 6.977c28.566 0 44.183-23.66 44.183-44.18 0-.667-.017-1.34-.047-2.007a31.568 31.568 0 007.743-8.033l.007-.01z" fill="#000"/></svg>