<svg width="100" height="100" fill="none" xmlns="http://www.w3.org/2000/svg"><g clip-path="url(#clip0_204:2)"><path fill-rule="evenodd" clip-rule="evenodd" d="M89.01 61.491s8.085 7.985 10.085 11.68c.04.053.07.112.09.175.815 1.365 1.015 2.435.615 3.225-.675 1.305-2.96 1.96-3.735 2.015h-14.29c-.995 0-3.065-.26-5.585-2-1.925-1.345-3.84-3.56-5.695-5.725-2.77-3.215-5.165-6.005-7.59-6.005-.306 0-.61.05-.9.15-1.835.58-4.165 3.195-4.165 10.16 0 2.18-1.72 3.42-2.925 3.42H48.37c-2.23 0-13.84-.78-24.134-11.635C11.62 53.661.29 27.001.18 26.766c-.705-1.725.775-2.665 2.375-2.665h14.43c1.936 0 2.566 1.17 3.006 2.22.51 1.205 2.4 6.025 5.5 11.44 5.02 8.81 8.105 12.395 10.57 12.395.463.001.918-.12 1.32-.35 3.22-1.77 2.62-13.27 2.47-15.64 0-.46-.005-5.135-1.655-7.395-1.18-1.62-3.19-2.25-4.405-2.48a5.223 5.223 0 011.9-1.615c2.204-1.1 6.19-1.26 10.144-1.26h2.195c4.29.06 5.4.335 6.96.73 3.14.75 3.2 2.785 2.925 9.715-.08 1.98-.165 4.21-.165 6.835 0 .56-.025 1.185-.025 1.82-.095 3.555-.22 7.56 2.29 9.205.326.203.702.31 1.085.31.87 0 3.475 0 10.54-12.125 3.1-5.355 5.5-11.67 5.665-12.145.14-.265.56-1.01 1.07-1.31.363-.193.77-.29 1.18-.28H96.53c1.85 0 3.105.28 3.35.98.41 1.135-.08 4.6-7.83 15.08a652.1 652.1 0 01-3.455 4.575c-7.025 9.22-7.025 9.685.415 16.685z" fill="#000"/></g><defs><clipPath id="clip0_204:2"><path fill="#fff" d="M0 0h100v100H0z"/></clipPath></defs></svg>