<svg width="50" height="50" fill="none" xmlns="http://www.w3.org/2000/svg"><path d="M36.45 29.964c-.627-.317-3.678-1.806-4.248-2.019-.57-.203-.985-.31-1.4.317-.407.611-1.604 2.01-1.97 2.418-.365.407-.724.439-1.341.162-.627-.317-2.628-.969-5.005-3.1-1.856-1.651-3.092-3.686-3.46-4.312-.365-.62-.04-.97.27-1.278.284-.285.626-.716.943-1.091.302-.375.398-.627.619-1.033.203-.439.098-.781-.056-1.09-.155-.31-1.4-3.377-1.92-4.599-.498-1.212-1.018-1.058-1.4-1.058-.359-.033-.774-.033-1.188-.033-.414 0-1.09.155-1.661.749-.57.626-2.181 2.123-2.181 5.151 0 3.036 2.23 5.974 2.539 6.413.317.406 4.386 6.656 10.628 9.342 1.489.627 2.645 1.002 3.548 1.311 1.49.472 2.849.406 3.922.252 1.188-.196 3.678-1.507 4.2-2.97.53-1.474.53-2.694.375-2.971-.155-.284-.56-.44-1.187-.716l-.027.155zM25.13 45.313h-.033a20.881 20.881 0 01-10.54-2.874l-.748-.447-7.812 2.035 2.1-7.602-.505-.781A20.572 20.572 0 014.434 24.69c0-11.344 9.286-20.597 20.711-20.597a20.554 20.554 0 0114.633 6.062 20.404 20.404 0 016.063 14.567c-.016 11.336-9.294 20.59-20.704 20.59h-.007zM42.748 7.185C37.995 2.596 31.745 0 25.097 0 11.384 0 .219 11.117.21 24.78c0 4.362 1.139 8.618 3.32 12.386L0 50l13.2-3.442a25.204 25.204 0 0011.898 3.019h.008c13.72 0 24.886-11.118 24.894-24.79 0-6.615-2.58-12.842-7.283-17.521l.031-.08z" fill="#000"/></svg>